<svg height="80" viewBox="0 0 80 80" width="80" xmlns="http://www.w3.org/2000/svg"><g fill="none" fill-rule="evenodd"><circle cx="40" cy="40" fill="#fff" r="39" stroke="#71828a" stroke-opacity=".2"/><g fill="#0074e4" transform="translate(18 20)"><path d="m26.9187766 31.5480597h-10.6315189v-.6997015c0-2.0771642-.7463367-4.0977612-2.1581168-5.8838806-1.6485636-2.0834328-2.3608797-4.6902985-2.0050997-7.3404477.5862131-4.3719403 4.2377595-7.90432841 8.6810035-8.39970154 2.8229553-.31417911 5.656646.56880597 7.7609347 2.42417914 2.1064055 1.8568656 3.314213 4.5202985 3.314213 7.3062686 0 2.2367164-.7463367 4.3425373-2.1581168 6.0895523-1.3502405 1.6728358-2.0944605 3.7192537-2.0944605 5.7607462v.6997015z" opacity=".2"/><path d="m43.9150241 9.72238806-.8228454-4.06059702h-4.1243574v1.39925374h2.0689072l-2.5594089 3.15820892c-.1389553-.27776116-.272165-.55835818-.4245773-.82835818l-1.2374433.68358208c.2494845.44.4741718.8941791.6817732 1.3544776l-.757677.9347761-4.2696632-3.51283578-5.1811134 6.81925378c-.3330997-.136418-.6967423-.2134329-1.0786805-.2134329-1.5635876 0-2.8350515 1.2550746-2.8350515 2.7985075v1.3992537h-2.8350515v-1.3992537c0-1.5434329-1.271464-2.7985075-2.8350516-2.7985075-.3820893 0-.7455808.0770149-1.0786804.2126866l-5.1809622-6.819403-4.26966324 3.5128358-.75631615-.9332836c.21546392-.4771641.44725773-.9480597.70657045-1.4026865l-1.23472165-.68567167c-.16299656.28552239-.30618557.58283582-.45360825.87731347l-2.55910653-3.15746272h2.06890722v-1.39925374h-4.12435739l-.82284536 4.06059702 1.38985567.27492537.41036426-2.0261194 2.9916976 3.69134327c-.04959451.1252239-.10841238.2462687-.15528523.3722388l.64427492.2316418 1.69105154 2.0862687 4.23549144-3.4834329 4.2923436 5.6495523c-.3884398.4785074-.6300618 1.0767164-.6300618 1.7364179 0 1.5434328 1.2714639 2.7985074 2.8350515 2.7985074h1.4175258v9.0952239h-2.8350516c-1.1722749 0-2.1263642.9416418-2.1263642 2.0989552 0 .4505971.1474227.8661195.3934295 1.208209l-.5804673 1.1935821c.2940893.14.5967972.2595522.8972371.3826866 0 .0049253-.0013608.0091044-.0013608.0140298 0 .7450746.398268 1.3971642.9929484 1.769403-.1758488.3056716-.2842612.6534328-.2842612 1.0291045 0 1.1571642.9539382 2.0989552 2.1263643 2.0989552h8.5051546c1.172275 0 2.1263643-.9416418 2.1263643-2.0989552 0-.3756717-.1084124-.7234329-.2842612-1.0291045.5946804-.3722388.9929485-1.0241791.9929485-1.769403 0-.0049254-.0013608-.0091045-.0013608-.0140298.300591-.1238806.6023917-.2428359.8972371-.3826866l-.5804674-1.1935821c.2460069-.3420895.3934296-.7577612.3934296-1.208209 0-1.1571641-.9539382-2.0989552-2.1263643-2.0989552h-2.8350515v-9.0953731h1.4175257c1.5635877 0 2.8350516-1.2550746 2.8350516-2.7985075 0-.6597015-.241622-1.2579104-.6294571-1.7371642l4.2921925-5.6495522 4.2354914 3.4834328 1.6216495-2.0008955.7342405-.2608955c-.0524673-.1441791-.1197525-.2840299-.1764536-.4274627l2.9924536-3.69119402.4103643 2.02611941zm-26.2100894 9.93194034c-.7817182 0-1.4175258-.627612-1.4175258-1.3992538 0-.1952239.0411272-.380597.1147629-.5492537l.7357526.9689552 1.1340206-.838806-.7321237-.9634328c.0553402-.0070149.1084124-.0167164.1651134-.0167164.7817182 0 1.4175258.6276119 1.4175258 1.3992537v1.3992538zm9.9226804 15.391791c0 .3861194-.3175258.6997015-.7088385.6997015h-.7088385-8.5051546-.7088385c-.3913127 0-.7088385-.3134328-.7088385-.6997015 0-.3861194.3175258-.6997015.7088385-.6997015h9.9226804c.3914639.0001493.7089897.3135821.7089897.6997015zm-1.4175258 3.498209h-8.5051546c-.3913127 0-.7088385-.3134329-.7088385-.6997015 0-.3862687.3175258-.6997015.7088385-.6997015h8.5051546c.3911616 0 .7088385.3134328.7088385.6997015 0 .3862686-.3176769.6997015-.7088385.6997015zm2.1262131-6.2967165c0 .3861194-.3175258.6997015-.7088385.6997015h-.7088385-9.9226804-.7088385c-.3913127 0-.7088385-.3134328-.7088385-.6997015 0-.3861194.3175258-.6997015.7088385-.6997015h11.3402062c.3914639.0001493.7089897.3135821.7089897.6997015zm-7.7963161-2.0988059v-9.0952239h2.8350515v9.0952239zm7.0876288-11.8937314c0 .7716418-.6358075 1.3992538-1.4175258 1.3992538h-1.4175257v-1.3992538c0-.7716418.6358075-1.3992537 1.4175257-1.3992537.0567011 0 .1099244.0098507.1651134.0167164l-.7321237.9626866 1.1340207.838806.7363573-.9689553c.073031.169403.1141581.3547761.1141581.55z" fill-rule="nonzero"/><path d="m15.2348866 2.82626866-.5606598-1.28462687c-.9185567.39044776-1.8115601.85910448-2.6536082 1.39149254l.7655395 1.17820895c.7767285-.49179104 1.6003299-.9241791 2.4487285-1.28507462z"/><path d="m20.5980481 1.51656716-.1105292-1.39507462c-1.0014158.07761194-1.9987491.23791045-2.9661443.47432836l.342323 1.35791044c.8901306-.21820895 1.8108041-.36507462 2.7343505-.43716418z"/><path d="m10.5817732 5.77089552-.94834365-1.03970149c-.74134708.65761194-1.43385567 1.38313433-2.06104467 2.15343284l1.10635052.87597014c.57835051-.71283582 1.21839175-1.38164179 1.9030378-1.98970149z"/><path d="m5.11156014 20.6050746-1.40331272.1937314c.13895533.9801492.36076976 1.9540298.65909279 2.8943283l1.35235738-.4183582c-.2750378-.8659701-.47916151-1.7650746-.60813745-2.6697015z"/><path d="m31.9418832 2.96477612c-.8420481-.53731343-1.7321787-1.00746269-2.6472578-1.39925373l-.5648934 1.28313433c.8441649.36164179 1.6662543.7961194 2.442378 1.29149253z"/><path d="m26.4511065.60910448c-.9681512-.24-1.9647285-.40223881-2.9626666-.48343284l-.116275 1.39507463c.9206736.0741791 1.8405911.22462686 2.7337458.44567164z"/><path d="m35.2687973 7.80059701 1.1084673-.87179104c-.6215945-.77104478-1.3133471-1.49791045-2.0539381-2.16119403l-.9525774 1.03686567c.6852509.61223881 1.3239313 1.2838806 1.8980482 1.9961194z"/><path d="m38.1782405 23.3274627 1.3508454.4225373c.3019519-.9410448.527244-1.9134328.6690722-2.8914925l-1.4033127-.1980597c-.1310928.901791-.3388454 1.7994029-.6166049 2.6670149z"/><path d="m38.6877938 15.2040299c.1651134.8947761.2587079 1.8113432.2763986 2.7243283l1.4175258-.0273134c-.0192027-.9871642-.1197526-1.9792538-.299835-2.948209z"/><path d="m35.672055 28.1870149 1.1418831.8297015c.5939244-.7976119 1.1247973-1.6468657 1.5776495-2.5235821l-1.2629965-.6352239c-.4189829.8095523-.9087286 1.5937314-1.4565361 2.3291045z"/><path d="m31.7185567 32.0028358.813622 1.1452239c.8207285-.5680597 1.5982131-1.2055224 2.3112852-1.8952239l-.9923436-.9991045c-.656976.6365672-1.3748866 1.2243284-2.1325636 1.7491045z"/><path d="m5.49863918 26.4420896c.4514914.8808955.9794914 1.7316417 1.56918213 2.5285074l1.14460481-.8255224c-.54508591-.7367164-1.03271478-1.5216418-1.44867354-2.3346268z"/><path d="m5.23705842 15.1508955-1.39408935-.2567164c-.18219931.9655224-.286378 1.9568657-.30966323 2.948209l1.41752578.0314925c.02116838-.9158209.11748453-1.8323881.2862268-2.7229851z"/><path d="m9.03028179 31.2143284c.7094433.6885074 1.48420621 1.3286567 2.30281791 1.9016417l.8193677-1.1425373c-.756921-.5289552-1.472866-1.1201492-2.1269691-1.7567164z"/></g></g></svg>