<svg height="80" viewBox="0 0 80 80" width="80" xmlns="http://www.w3.org/2000/svg"><g fill="none" fill-rule="evenodd"><circle cx="40" cy="40" fill="#fff" r="39" stroke="#71828a" stroke-opacity=".2"/><g fill="#0074e4" transform="translate(20 20)"><circle cx="19.974" cy="19.974" opacity=".1" r="14.82"/><path d="m39.9484536 19.9742955c0-11.01360821-8.9605498-19.9742955-19.9740206-19.9742955-3.4214433 0-6.6437114.86597938-9.4614433 2.38790378-4.34144331-2.16302405-7.47615121-2.47161512-9.06831616-.87752577-1.73457045 1.73457044-1.06831615 5.14171821.9033677 9.07986249-1.49608248 2.7995877-2.34790378 5.9942269-2.34790378 9.384055 0 11.0134708 8.96068728 19.9742956 19.97429554 19.9742956 3.3865292 0 6.5773196-.8498969 9.3749828-2.3433677 2.3286598 1.1623367 4.5289347 1.9019931 6.2931959 1.9019931 1.1404811 0 2.0999313-.3066667 2.7957388-1.0031615 1.5934021-1.5934021 1.2854983-4.7274227-.8775258-9.0683162 1.521787-2.8178694 2.3876289-6.0401374 2.3876289-9.4614433zm-37.59257731-17.5528522c1.05415807-1.05415808 3.51477663-.76934708 6.82790378.7571134-2.42914089 1.5657732-4.49676976 3.64233677-6.05223368 6.07862543-1.54570447-3.37773196-1.78474227-5.82680412-.7756701-6.83573883zm17.61855671 36.2383505c-10.30350516 0-18.68563575-8.3821306-18.68563575-18.6856357 0-2.8575945.64687285-5.5657732 1.79835052-7.9896907 1.73127147 3.0980068 4.15395189 6.4284536 6.78226804 9.4826116l-2.26350516.452921.25319588 1.2635052 3.56384877-.7125774 1.4181444-3.5457044-1.1965636-.4787629-.8460481 2.1153264c-3.17264608-3.684811-5.49938147-7.0810996-6.99230243-9.9355326 3.23642611-5.57663231 9.26927833-9.33759451 16.16824743-9.33759451 10.3035051 0 18.6856357 8.38213059 18.6856357 18.68563571 0 6.8988316-3.7609622 12.9316839-9.3370446 16.16811-2.0793128-1.0927835-4.3943643-2.5844674-6.8105842-4.4368385l-.7841925 1.022543c1.990378 1.5264604 4.1340206 2.9742955 6.2236426 4.1391065-2.420756 1.1476289-5.1252233 1.7925773-7.977457 1.7925773zm17.5527148-1.0669416c-1.0793127 1.0793127-3.5844674.7293471-6.8401375-.7731958 2.4382131-1.5560138 4.5161512-3.6250172 6.0831615-6.0547079 1.526323 3.3124398 1.811134 5.7737457.756976 6.8279037z" fill-rule="nonzero"/><path d="m26.417732 24.4845361c0-2.8421993-2.3124399-5.1546392-5.1546392-5.1546392h-2.5773196c-2.1320962 0-3.8659794-1.7338832-3.8659794-3.8659794s1.7338832-3.8659794 3.8659794-3.8659794h2.5773196c2.1320962 0 3.8659794 1.7338832 3.8659794 3.8659794v.6443987h1.2886598v-.6443987c0-2.8421993-2.3124399-5.1546391-5.1546392-5.1546391h-.6443986v-2.57731964h-1.2886598v2.57731964h-.6443987c-2.8421993 0-5.1546391 2.3124398-5.1546391 5.1546391s2.3124398 5.1546392 5.1546391 5.1546392h2.5773196c2.1320962 0 3.8659794 1.7338832 3.8659794 3.8659794s-1.7338832 3.8659794-3.8659794 3.8659794h-2.5773196c-2.1320962 0-3.8659793-1.7338832-3.8659793-3.8659794v-.6443986h-1.2886598v.6443986c0 2.8421993 2.3124398 5.1546392 5.1546391 5.1546392h.6443987v2.5773195h1.2886598v-2.5773195h.6443986c2.8420618 0 5.1546392-2.3124399 5.1546392-5.1546392z"/></g></g></svg>