<svg height="30" viewBox="0 0 147 30" width="147" xmlns="http://www.w3.org/2000/svg" xmlns:xlink="http://www.w3.org/1999/xlink"><defs><path id="a" d="m6.250125 19.999875c0-2.06775 1.681875-3.7485 3.75-3.7485l3.75-.0015v3.75c0 2.068125-1.68225 3.75-3.75 3.75-2.068125 0-3.75-1.681875-3.75-3.75zm13.74975-13.74975c2.068125 0 3.75 1.681875 3.75 3.75 0 2.06775-1.681875 3.75-3.75 3.75h-3.75v-3.75c0-2.06775 1.68225-3.75 3.75-3.75zm7.5-6.250125c1.37475 0 2.500125 1.125375 2.500125 2.500125v24.99975c0 1.37475-1.125375 2.500125-2.500125 2.500125h-24.99975c-1.37475 0-2.500125-1.125375-2.500125-2.49975v-25.000125c0-1.37475 1.125375-2.500125 2.500125-2.500125zm-7.5 16.249875c3.445875 0 6.250125-2.803875 6.250125-6.24975 0-3.44625-2.80425-6.250125-6.250125-6.250125s-6.24975 2.803875-6.24975 6.250125v3.75h-3.75c-3.445875 0-6.250125 2.803875-6.250125 6.24975s2.80425 6.250125 6.250125 6.250125 6.24975-2.80425 6.24975-6.250125v-3.75z"/><filter id="b" height="276.7%" width="276.7%" x="-88.3%" y="-61.7%"><feOffset dx="0" dy="8" in="SourceAlpha" result="shadowOffsetOuter1"/><feGaussianBlur in="shadowOffsetOuter1" result="shadowBlurOuter1" stdDeviation="7.5"/><feColorMatrix in="shadowBlurOuter1" type="matrix" values="0 0 0 0 0.137254902   0 0 0 0 0.105882353   0 0 0 0 0.458823529  0 0 0 0.1 0"/></filter></defs><g fill="none" fill-rule="evenodd"><g transform="translate(40 1)"><path d="m9.282 3.108c.933338 0 1.6729973.27066396 2.219.812s.819 1.34399468.819 2.408v4.27h-1.344v-4.116c0-.71867026-.165665-1.25999818-.497-1.624s-.80499692-.546-1.421-.546c-.68133674 0-1.22266466.21233121-1.624.637s-.602 1.0336627-.602 1.827v3.822h-1.344v-4.116c0-.71867026-.16566501-1.25999818-.497-1.624s-.80499692-.546-1.421-.546c-.68133674 0-1.22266466.21233121-1.624.637s-.602 1.0336627-.602 1.827v3.822h-1.344v-7.42h1.288v1.106c.27066802-.38266858.62533114-.67433233 1.064-.875s.9379972-.301 1.498-.301c.57866956 0 1.09199776.1166655 1.54.35s.79333212.57399776 1.036 1.022c.2800014-.42933548.66966417-.76533212 1.169-1.008s1.06166354-.364 1.687-.364zm5.516.07h1.344v7.42h-1.344zm.672-1.428c-.2613346 0-.4783325-.08399916-.651-.252s-.259-.37333212-.259-.616.0863325-.45033247.259-.623.3896654-.259.651-.259.4783325.08166585.651.245.259.36633212.259.609c0 .25200126-.0863325.46433247-.259.637s-.3896654.259-.651.259zm7.196 1.358c.9426714 0 1.6916639.27299727 2.247.819s.833 1.34632806.833 2.401v4.27h-1.344v-4.116c0-.71867026-.1726649-1.25999818-.518-1.624s-.8399968-.546-1.484-.546c-.7280036 0-1.3019979.21233121-1.722.637s-.63 1.0336627-.63 1.827v3.822h-1.344v-7.42h1.288v1.12c.270668-.38266858.6369977-.67666564 1.099-.882s.9869971-.308 1.575-.308zm5.572.07h1.344v7.42h-1.344zm.672-1.428c-.2613346 0-.4783325-.08399916-.651-.252s-.259-.37333212-.259-.616.0863325-.45033247.259-.623.3896654-.259.651-.259.4783325.08166585.651.245.259.36633212.259.609c0 .25200126-.0863325.46433247-.259.637s-.3896654.259-.651.259zm12.516 1.358c.933338 0 1.6729973.27066396 2.219.812s.819 1.34399468.819 2.408v4.27h-1.344v-4.116c0-.71867026-.165665-1.25999818-.497-1.624s-.8049969-.546-1.421-.546c-.6813367 0-1.2226647.21233121-1.624.637s-.602 1.0336627-.602 1.827v3.822h-1.344v-4.116c0-.71867026-.165665-1.25999818-.497-1.624s-.8049969-.546-1.421-.546c-.6813367 0-1.2226647.21233121-1.624.637s-.602 1.0336627-.602 1.827v3.822h-1.344v-7.42h1.288v1.106c.270668-.38266858.6253311-.67433233 1.064-.875s.9379972-.301 1.498-.301c.5786696 0 1.0919978.1166655 1.54.35s.7933321.57399776 1.036 1.022c.2800014-.42933548.6696642-.76533212 1.169-1.008s1.0616635-.364 1.687-.364zm8.218 0c1.0266718 0 1.8129973.25199748 2.359.756s.819 1.25532834.819 2.254v4.48h-1.274v-.98c-.2240011.34533506-.5436646.6089991-.959.791s-.9076638.273-1.477.273c-.8306708 0-1.4956642-.2006647-1.995-.602-.4993358-.40133534-.749-.9286634-.749-1.582s.2379976-1.17833135.714-1.575 1.2319948-.595 2.268-.595h2.128v-.266c0-.57866956-.1679983-1.02199846-.504-1.33s-.8306634-.462-1.484-.462c-.4386689 0-.8679979.07233261-1.288.217s-.7746652.33833212-1.064.581l-.56-1.008c.3826686-.30800154.8399973-.54366585 1.372-.707s1.0966637-.245 1.694-.245zm-.308 6.538c.5133359 0 .9566648-.11433219 1.33-.343s.6439992-.5529979.812-.973v-1.036h-2.072c-1.1386724 0-1.708.38266284-1.708 1.148 0 .3733352.1446652.66733226.434.882s.6906641.322 1.204.322zm5.978-9.436h1.344v10.388h-1.344z" fill="#71828a"/><path d="m5.7 28.48c-1.1066722 0-2.1766615-.1499985-3.21-.45s-1.8633302-.6899976-2.49-1.17l1.1-2.44c.600003.4400022 1.3133292.793332 2.14 1.06s1.6533292.4 2.48.4c.9200046 0 1.5999978-.1366653 2.04-.41s.66-.6366644.66-1.09c0-.333335-.1299987-.6099989-.39-.83s-.5933313-.396666-1-.53-.9566632-.2799992-1.65-.44c-1.066672-.2533346-1.9399966-.5066654-2.62-.76s-1.2633309-.6599972-1.75-1.22-.73-1.306662-.73-2.24c0-.8133374.2199978-1.5499967.66-2.21s1.1033289-1.1833314 1.99-1.57 1.9699936-.58 3.25-.58c.8933378 0 1.7666624.1066656 2.62.32s1.5999968.519998 2.24.92l-1 2.46c-1.2933398-.733337-2.5866602-1.1-3.88-1.1-.9066712 0-1.5766645.1466652-2.01.44s-.65.6799976-.65 1.16.2499975.8366655.75 1.07 1.2633282.4633322 2.29.69c1.066672.2533346 1.9399966.5066654 2.62.76s1.2633309.6533306 1.75 1.2.73 1.286662.73 2.22c0 .800004-.2233311 1.5299967-.67 2.19s-1.1166622 1.1833314-2.01 1.57-1.9799936.58-3.26.58zm12.28-11.16c1.666675 0 2.9466622.3966627 3.84 1.19s1.34 1.989992 1.34 3.59v6.14h-2.92v-1.34c-.5866696 1.000005-1.679992 1.5-3.28 1.5-.8266708 0-1.5433303-.1399986-2.15-.42s-1.0699984-.6666642-1.39-1.16-.48-1.0533302-.48-1.68c0-1.000005.3766629-1.7866638 1.13-2.36s1.9166588-.86 3.49-.86h2.48c0-.6800034-.2066646-1.2033315-.62-1.57s-1.0333292-.55-1.86-.55c-.5733362 0-1.1366639.0899991-1.69.27s-1.0233314.4233318-1.41.73l-1.12-2.18c.5866696-.4133354 1.2899959-.7333322 2.11-.96s1.663329-.34 2.53-.34zm-.24 8.98c.533336 0 1.0066646-.1233321 1.42-.37s.7066658-.6099976.88-1.09v-1.1h-2.14c-1.2800064 0-1.92.4199958-1.92 1.26 0 .400002.1566651.7166655.47.95s.7433306.35 1.29.35zm12.58-8.98c1.666675 0 2.9466622.3966627 3.84 1.19s1.34 1.989992 1.34 3.59v6.14h-2.92v-1.34c-.5866696 1.000005-1.679992 1.5-3.28 1.5-.8266708 0-1.5433303-.1399986-2.15-.42s-1.0699984-.6666642-1.39-1.16-.48-1.0533302-.48-1.68c0-1.000005.3766629-1.7866638 1.13-2.36s1.9166588-.86 3.49-.86h2.48c0-.6800034-.2066646-1.2033315-.62-1.57s-1.0333292-.55-1.86-.55c-.5733362 0-1.1366639.0899991-1.69.27s-1.0233314.4233318-1.41.73l-1.12-2.18c.5866696-.4133354 1.2899959-.7333322 2.11-.96s1.663329-.34 2.53-.34zm-.24 8.98c.533336 0 1.0066646-.1233321 1.42-.37s.7066658-.6099976.88-1.09v-1.1h-2.14c-1.2800064 0-1.92.4199958-1.92 1.26 0 .400002.1566651.7166655.47.95s.7433306.35 1.29.35zm13.06 2.18c-1.1066722 0-2.1766615-.1499985-3.21-.45s-1.8633302-.6899976-2.49-1.17l1.1-2.44c.600003.4400022 1.3133292.793332 2.14 1.06s1.6533292.4 2.48.4c.9200046 0 1.5999978-.1366653 2.04-.41s.66-.6366644.66-1.09c0-.333335-.1299987-.6099989-.39-.83s-.5933313-.396666-1-.53-.9566632-.2799992-1.65-.44c-1.066672-.2533346-1.9399966-.5066654-2.62-.76s-1.2633309-.6599972-1.75-1.22-.73-1.306662-.73-2.24c0-.8133374.2199978-1.5499967.66-2.21s1.1033289-1.1833314 1.99-1.57 1.9699936-.58 3.25-.58c.8933378 0 1.7666624.1066656 2.62.32s1.5999968.519998 2.24.92l-1 2.46c-1.2933398-.733337-2.5866602-1.1-3.88-1.1-.9066712 0-1.5766645.1466652-2.01.44s-.65.6799976-.65 1.16.2499975.8366655.75 1.07 1.2633282.4633322 2.29.69c1.066672.2533346 1.9399966.5066654 2.62.76s1.2633309.6533306 1.75 1.2.73 1.286662.73 2.22c0 .800004-.2233311 1.5299967-.67 2.19s-1.1166622 1.1833314-2.01 1.57-1.9799936.58-3.26.58zm19.88-14.24c1.2400062 0 2.3166621.2066646 3.23.62s1.6166642.9999962 2.11 1.76.74 1.6599948.74 2.7c0 1.0266718-.2466642 1.9233295-.74 2.69s-1.1966621 1.3533313-2.11 1.76-1.9899938.61-3.23.61h-2.82v3.86h-3.24v-14zm-.18 7.5c.9733382 0 1.7133308-.2099979 2.22-.63s.76-1.0166628.76-1.79c0-.7866706-.2533308-1.3899979-.76-1.81s-1.2466618-.63-2.22-.63h-2.64v4.86zm12.88-4.42c1.666675 0 2.9466622.3966627 3.84 1.19s1.34 1.989992 1.34 3.59v6.14h-2.92v-1.34c-.5866696 1.000005-1.679992 1.5-3.28 1.5-.8266708 0-1.5433303-.1399986-2.15-.42s-1.0699984-.6666642-1.39-1.16-.48-1.0533302-.48-1.68c0-1.000005.3766629-1.7866638 1.13-2.36s1.9166588-.86 3.49-.86h2.48c0-.6800034-.2066646-1.2033315-.62-1.57s-1.0333292-.55-1.86-.55c-.5733362 0-1.1366639.0899991-1.69.27s-1.0233314.4233318-1.41.73l-1.12-2.18c.5866696-.4133354 1.2899959-.7333322 2.11-.96s1.663329-.34 2.53-.34zm-.24 8.98c.533336 0 1.0066646-.1233321 1.42-.37s.7066658-.6099976.88-1.09v-1.1h-2.14c-1.2800064 0-1.92.4199958-1.92 1.26 0 .400002.1566651.7166655.47.95s.7433306.35 1.29.35zm12.58-8.98c1.666675 0 2.9466622.3966627 3.84 1.19s1.34 1.989992 1.34 3.59v6.14h-2.92v-1.34c-.5866696 1.000005-1.679992 1.5-3.28 1.5-.8266708 0-1.5433303-.1399986-2.15-.42s-1.0699984-.6666642-1.39-1.16-.48-1.0533302-.48-1.68c0-1.000005.3766629-1.7866638 1.13-2.36s1.9166588-.86 3.49-.86h2.48c0-.6800034-.2066646-1.2033315-.62-1.57s-1.0333292-.55-1.86-.55c-.5733362 0-1.1366639.0899991-1.69.27s-1.0233314.4233318-1.41.73l-1.12-2.18c.5866696-.4133354 1.2899959-.7333322 2.11-.96s1.663329-.34 2.53-.34zm-.24 8.98c.533336 0 1.0066646-.1233321 1.42-.37s.7066658-.6099976.88-1.09v-1.1h-2.14c-1.2800064 0-1.92.4199958-1.92 1.26 0 .400002.1566651.7166655.47.95s.7433306.35 1.29.35zm13.06 2.18c-1.1066722 0-2.1766615-.1499985-3.21-.45s-1.8633302-.6899976-2.49-1.17l1.1-2.44c.600003.4400022 1.3133292.793332 2.14 1.06s1.653329.4 2.48.4c.920005 0 1.599998-.1366653 2.04-.41s.66-.6366644.66-1.09c0-.333335-.129999-.6099989-.39-.83s-.593331-.396666-1-.53-.956663-.2799992-1.65-.44c-1.066672-.2533346-1.9399966-.5066654-2.62-.76s-1.2633309-.6599972-1.75-1.22-.73-1.306662-.73-2.24c0-.8133374.2199978-1.5499967.66-2.21s1.1033289-1.1833314 1.99-1.57 1.969994-.58 3.25-.58c.893338 0 1.766662.1066656 2.62.32s1.599997.519998 2.24.92l-1 2.46c-1.29334-.733337-2.58666-1.1-3.88-1.1-.906671 0-1.5766645.1466652-2.01.44s-.65.6799976-.65 1.16.2499975.8366655.75 1.07 1.263328.4633322 2.29.69c1.066672.2533346 1.939997.5066654 2.62.76s1.263331.6533306 1.75 1.2.73 1.286662.73 2.22c0 .800004-.223331 1.5299967-.67 2.19s-1.116662 1.1833314-2.01 1.57-1.979994.58-3.26.58z" fill="#1d262c"/></g><use fill="#000" filter="url(#b)" xlink:href="#a"/><use fill="#0074e4" fill-rule="evenodd" xlink:href="#a"/></g></svg>