<svg height="20" viewBox="0 0 20 20" width="20" xmlns="http://www.w3.org/2000/svg"><path d="m49.9290265 19.8576991c-5.4835521 0-9.9288495-4.4452973-9.9288495-9.92884954 0-5.4835522 4.4452974-9.92884956 9.9288495-9.92884956 5.4835522 0 9.9288496 4.44529736 9.9288496 9.92884956 0 5.48355224-4.4452974 9.92884954-9.9288496 9.92884954zm6.08177-12.72212388c-.4254868.18867257-.8831859.31628319-1.3631859.37327434.4900885-.29362832.8661947-.75823009 1.0437168-1.31274337-.458584.2720354-.9667256.46938054-1.5070796.57575222-.4329204-.46106195-1.0497345-.74920354-1.7327434-.74920354-1.3104425 0-2.3732743 1.06283186-2.3732743 2.37327433 0 .1860177.0210619.36707965.0617699.54088496-1.9723894-.09893805-3.7212389-1.04371681-4.8918584-2.48-.2042478.35044248-.3214159.75840708-.3214159 1.19327434 0 .82318584.419292 1.5499115 1.0557522 1.97539823-.3888496-.01221239-.7550443-.11893806-1.0748673-.29716815-.000177.0100885-.000177.020177-.000177.0300885 0 1.14991152.8184071 2.10902652 1.9038938 2.32690262-.198938.0545133-.4090265.0833629-.6251327.0833629-.1532743 0-.3017699-.0146903-.4465487-.0423009.3019469.9426548 1.1782301 1.6288495 2.2169912 1.6481416-.8123894.6366371-1.8355753 1.0159292-2.9477876 1.0159292-.1911505 0-.380531-.0111505-.5658408-.0332744 1.0497346.6736284 2.2975222 1.0663717 3.6376992 1.0663717 4.3653097 0 6.7525663-3.6162832 6.7525663-6.75274334 0-.10283186-.0023008-.20530973-.0069026-.30690265.4640708-.33451328.8663717-.75238939 1.1844248-1.22831859z" fill="#71828a" transform="translate(-40)"/></svg>