<svg height="80" viewBox="0 0 80 80" width="80" xmlns="http://www.w3.org/2000/svg"><g fill="none" fill-rule="evenodd"><circle cx="40" cy="40" fill="#fff" r="39" stroke="#71828a" stroke-opacity=".2"/><g fill="#0074e4" transform="translate(20 20)"><path d="m19.9742955 21.2629553c-.7120275 0-1.2886598-.5766323-1.2886598-1.2886598s.5766323-1.2886598 1.2886598-1.2886598c.2358763 0 .4542956.0683162.6443987.1784193v-18.2035739c-.2145705-.00714777-.4284537-.01608247-.6443987-.01608247-10.67601371 0-19.32989687 8.65388316-19.32989687 19.32989687 0 10.6760138 8.65402061 19.3298969 19.32989687 19.3298969.2158076 0 .4298282-.0090721.6443987-.0160824v-18.2037114c-.1902406.1102406-.4086598.1785567-.6443987.1785567z" opacity=".1"/><path d="m38.619244 21.2210309 1.2860481.0843987c.0283161-.4394502.0431615-.8878351.0431615-1.3311341h-1.2886598c0 .4186942-.0134708.8343643-.0405498 1.2467354z"/><path d="m5.94652921 32.3195876-.96646048.8530584c.57608247.6520963 1.1971134 1.2712028 1.84728522 1.8401375l.84852234-.9703093c-.60824742-.5315464-1.19010309-1.1120275-1.72934708-1.7228866z"/><path d="m8.8995189 36.5998625c.7228866.4819244 1.483299.9213746 2.2608935 1.304055l.569622-1.1565635c-.7274227-.3582131-1.4387629-.7679726-2.1153265-1.2203437z"/><path d="m13.5741581 38.900756c.8208934.2776632 1.6701031.5039175 2.5238488.6720275l.2486598-1.2648797c-.7983505-.1565636-1.592165-.3679725-2.3601375-.6281787z"/><path d="m35.5044674 30.3685223 1.0702405.7171134c.483299-.7209622.9239863-1.4813745 1.3085911-2.258969l-1.1546392-.5715464c-.3601375.7268728-.7718213 1.438213-1.2241924 2.113402z"/><path d="m1.65402062 23.6713402-1.26350516.2531959c.17072165.8498969.39945018 1.6978694.68041238 2.5193127l1.21965635-.4162199c-.26281787-.7692097-.47738831-1.561787-.63656357-2.3562887z"/><path d="m2.07601375 28.8505842c.38529209.7758076.82666666 1.5348454 1.31120274 2.2545704l1.06900344-.7184879c-.45292096-.6739519-.86529209-1.3833677-1.22611684-2.1095533z"/><path d="m18.76811 38.6211684-.0824743 1.2867354c.425842.027079.8556701.0405498 1.2886598.0405498.4413746 0 .8859107-.0141581 1.3195877-.0424742l-.0843987-1.2860481c-.8067354.0527835-1.6340893.0533333-2.4413745.0012371z"/><path d="m37.6662543 26.0012371 1.2203436.4155327c.2795877-.8202062.5077664-1.6694158.6772509-2.5226117l-1.2641924-.2519588c-.158488.7979382-.3718213 1.5910653-.6334021 2.3590378z"/><path d="m23.6301031 38.3021306.2512715 1.2635051c.851134-.1687972 1.6991065-.3956013 2.5212371-.6746391l-.4149828-1.221031c-.7679725.2617182-1.5610997.473677-2.3575258.632165z"/><path d="m32.2886598 34.0290034.8492096.9690722c.6507217-.5701718 1.2718901-1.1907904 1.8453608-1.8434364l-.967835-.8505842c-.5366323.6103093-1.1178007 1.1907904-1.7267354 1.7249484z"/><path d="m28.2397251 36.737732.5708591 1.1553264c.7758076-.3833677 1.5353952-.8228179 2.257732-1.3061168l-.7164262-1.0709279c-.6760137.4518214-1.3866666.8628179-2.1121649 1.2217183z"/><path d="m1.28865979 19.9742955c0-10.30350512 8.38213059-18.68563571 18.68563571-18.68563571 3.3150516 0 6.5264605.87120275 9.3639863 2.51862543l-1.8717526.74872853.4787629 1.19656357 3.6269416-1.45044674v-3.65773195h-1.2886598v2.2332646c-3.1070791-1.87835051-6.6482474-2.87766323-10.3092784-2.87766323-11.01360821 0-19.9742955 8.96068729-19.9742955 19.9742955 0 .443299.01484536.8916839.04316151 1.3305842l1.28604811-.0843986c-.02707904-.4118213-.04054983-.8274914-.04054983-1.2461856z"/><path d="m34.1495533 15.4639175c0-.371134-.1102406-.715189-.2925086-1.009622l3.5301718-5.54707901c.1978007.06831616.4071478.11340207.6281787.11340207 1.0657045 0 1.9330584-.8672165 1.9330584-1.93305842 0-1.06584193-.8672165-1.93292096-1.932921-1.93292096-1.0657044 0-1.9330584.86721649-1.9330584 1.93305841 0 .37113403.1102406.71518901.2925086 1.009622l-3.5303093 5.54707901c-.1978006-.0683161-.4072852-.113402-.6281787-.113402-.5083161 0-.967835.2010996-1.3131271.5226116l-2.5799313-1.5477663c.0122337-.0870103.0270791-.1733333.0270791-.2635051 0-1.0657045-.8672165-1.9330584-1.9330585-1.9330584-1.0658419 0-1.9330584.8672164-1.9330584 1.9330584 0 .334433.0934708.6449484.2435739.9194501l-4.0206185 5.025842c-.0283162-.0115464-.0599313-.0174571-.0889348-.0277664v-14.29388312h-.6443986c-8.8820618 0-16.10831613 7.22611682-16.10831613 16.10831612s7.22639173 16.1081787 16.10859103 16.1081787h.6442612v-14.2937457c.7480412-.2668041 1.2886598-.9755326 1.2886598-1.814433 0-.334433-.0934708-.6449484-.2435739-.9194501l4.0206186-5.025842c.2268041.0934708.4735395.1462543.7331958.1462543.5083162 0 .9678351-.2010996 1.3131272-.5226117l2.5799313 1.5476289c-.0122337.0870103-.0270791.1733333-.0270791.2635052 0 1.0657044.8672165 1.9330584 1.9330584 1.9330584 1.065842 0 1.9330585-.8672165 1.9330585-1.932921zm3.8659793-9.02061853c.3550516 0 .6443987.28934708.6443987.64439862 0 .35505155-.2893471.64439863-.6443987.64439863-.3550515 0-.6443986-.28934708-.6443986-.64439863 0-.35505154.2893471-.64439862.6443986-.64439862zm-18.6856357 6.41553263c-1.940756-.0980069-3.6971821-.6147079-5.1714089-1.2668041 1.6320275-3.19271479 3.9052921-5.07147767 5.1714089-5.93429554zm-6.2996564-1.8156701c-1.3968384-.7429553-2.4452233-1.53223366-3.0283161-2.01676975 2.0908591-1.90597938 4.7261856-3.22226804 7.6430241-3.68494845-1.3879038 1.13402062-3.2184193 2.99367697-4.614708 5.7017182zm-.553402 1.1817182c-.8402749 1.9683849-1.4277663 4.3241237-1.5083162 7.1050172h-5.79780065c.15532646-3.6133333 1.61209622-6.8937457 3.91037801-9.38790377.62570446.53484537 1.79972504 1.44137457 3.39573884 2.28288657zm-1.5084536 8.393677c.0798625 2.7815808.6681787 5.1371821 1.5083161 7.1050172-1.5960137.841512-2.77003433 1.7480412-3.39560134 2.2821993-2.29883162-2.4934708-3.75505155-5.7737457-3.91037801-9.3872165zm2.0618556 8.2867354c1.3962887 2.7081787 3.2268042 4.5676976 4.614708 5.7017182-2.9175258-.4626804-5.5528523-1.7789691-7.6430241-3.6849484.5830928-.4845361 1.6314777-1.2745018 3.0283161-2.0167698zm1.1534021-.5593127c1.4691409-.6475602 3.2164949-1.158488 5.1462543-1.2558076v7.1874914c-1.2551203-.8736769-3.5135395-2.7667354-5.1462543-5.9316838zm5.1462543-2.5457045c-2.1558763.0973196-4.0876976.6545705-5.6964948 1.3639863-.7628866-1.8137457-1.297732-3.9832303-1.3756701-6.5451547h5.9026804c.1946391.5457045.6243299.9755327 1.1701718 1.1701719v4.0109965zm-1.1700344-6.470378h-5.9033677c.0767011-2.5722337.6031616-4.7435051 1.3557389-6.5540893 1.6133333.7132646 3.5528522 1.275189 5.7178007 1.3723711v4.0115464c-.545842.1946392-.9756701.6244673-1.1701719 1.1701718zm1.814433 1.2886598c-.3550515 0-.6443986-.2893471-.6443986-.6443986 0-.3550516.2893471-.6443986.6443986-.6443986.3550516 0 .6443987.289347.6443987.6443986-.0001375.3550515-.2894846.6443986-.6443987.6443986zm6.443299-7.7319588c-.3550515 0-.6443986-.289347-.6443986-.6443986 0-.3550515.2893471-.6443986.6443986-.6443986s.6443986.2893471.6443986.6443986c0 .3550516-.2894845.6443986-.6443986.6443986zm5.7989003 3.2217183c-.3550515 0-.6443986-.2893471-.6443986-.6443987 0-.3550515.2893471-.6443986.6443986-.6443986.3550516 0 .6443987.2893471.6443987.6443986 0 .3550516-.2893471.6443987-.6443987.6443987z" fill-rule="nonzero"/></g></g></svg>