<svg height="20" viewBox="0 0 20 20" width="20" xmlns="http://www.w3.org/2000/svg"><path d="m89.9985654 19.9971308c-5.5220552 0-9.9985654-4.4765102-9.9985654-9.9985654 0-5.52205519 4.4765102-9.9985654 9.9985654-9.9985654s9.9985654 4.47651021 9.9985654 9.9985654c0 5.5220552-4.4765102 9.9985654-9.9985654 9.9985654zm5.2322785-11.92801688c0-.83818565-.6790296-1.51755274-1.5167511-1.51755274h-7.1161181c-.8375528 0-1.5164557.67953587-1.5164557 1.51755274v4.06936708c0 .8381857.6790295 1.5175528 1.5164557 1.5175528h7.1159915c.8378903 0 1.5167511-.6795359 1.5167511-1.5175528v-4.06936708zm-6.0899156 3.75139238v-3.82210968l2.8985232 1.91113924z" fill="#71828a" transform="translate(-80)"/></svg>